PathFileType	4	(X/Y/Z)	C:/Users/opensim2020/Desktop/walking_exp_matlab/subject02_walking08_straight_04.trc																																																																																																																									
DataRate	CameraRate	NumFrames	NumMarkers	Units	OrigDataRate	OrigDataStartFrame	OrigNumFrames																																																																																																																					
100	100	4	41	mm	100	3137	241																																																																																																																					
Frame#	Time	LFHD			RFHD			LBHD			RBHD			C7			T10			CLAV			STRN			RBAK			LSHO			LUPA			LELB			LFRM			LWRA			LWRB			LFIN			RSHO			RUPA			RELB			RFRM			RWRA			RWRB			RFIN			LASI			RASI			LPSI			RPSI			LTHI			LKNE			LTIB			LANK			LHEE			LTOE			RTHI			RKNE			RTIB			RANK			RHEE			RTOE			*39			*40		
		X1	Y1	Z1	X2	Y2	Z2	X3	Y3	Z3	X4	Y4	Z4	X5	Y5	Z5	X6	Y6	Z6	X7	Y7	Z7	X8	Y8	Z8	X9	Y9	Z9	X10	Y10	Z10	X11	Y11	Z11	X12	Y12	Z12	X13	Y13	Z13	X14	Y14	Z14	X15	Y15	Z15	X16	Y16	Z16	X17	Y17	Z17	X18	Y18	Z18	X19	Y19	Z19	X20	Y20	Z20	X21	Y21	Z21	X22	Y22	Z22	X23	Y23	Z23	X24	Y24	Z24	X25	Y25	Z25	X26	Y26	Z26	X27	Y27	Z27	X28	Y28	Z28	X29	Y29	Z29	X30	Y30	Z30	X31	Y31	Z31	X32	Y32	Z32	X33	Y33	Z33	X34	Y34	Z34	X35	Y35	Z35	X36	Y36	Z36	X37	Y37	Z37	X38	Y38	Z38	X39	Y39	Z39	X40	Y40	Z40	X41	Y41	Z41
																																																																																																																												
151	1.5	393.46198	1690.70996	-1451.91174	337.60089	1667.43323	-1320.67798	262.11972	1648.86926	-1513.80896	196.25	1627.18323	-1386.62048	157.36414	1503.1571	-1451.47144	104.6068	1220.90491	-1448.40564	293.74417	1429.79297	-1455.16345	346.51028	1260.42273	-1451.70886	93.6547	1320.77844	-1396.26917	234.11223	1480.85193	-1626.47827	261.07123	1289.31152	-1720.25879	302.84042	1154.85083	-1746.71887	379.00366	1044.84216	-1758.32544	491.76022	970.64728	-1726.42798	451.94144	946.44092	-1758.22607	503.81525	906.4668	-1764.55212	218.36038	1455.4939	-1261.19104	165.93163	1264.68091	-1191.54163	163.46854	1118.04211	-1180.35242	176.92834	999.84033	-1157.86914	219.06801	869.82581	-1166.87732	165.86452	870.24725	-1147.43286	196.22743	804.73737	-1137.43958	333.73544	958.81787	-1594.14856	356.73865	959.04822	-1337.16589	131.00752	1001.84064	-1490.75647	135.16013	1004.18103	-1376.85876	204.30269	658.99799	-1637.65308	127.76346	472.29346	-1609.28894	-1.53198	325.66019	-1608.08655	-89.19418	116.74694	-1580.29565	-129.66133	103.10754	-1528.7865	44.86269	31.11024	-1594.99475	349.66812	664.14441	-1251.97217	412.22357	466.25	-1292.71033	415.51129	278.34274	-1282.55542	435.12823	86.39998	-1316.79016	409.92639	35.26522	-1375.40002	589.09436	39.0078	-1297.24609	281.54849	1775.18921	-1395.36023	-2845.98071	1034.29529	3357.18848
152	1.51	402.57706	1691.20032	-1449.08032	347.02869	1667.74817	-1317.52576	271.16461	1649.5072	-1510.58984	205.54352	1627.69617	-1383.24231	166.29436	1503.88208	-1448.43713	114.31754	1221.10144	-1446.32104	302.76254	1430.58264	-1452.42102	356.19421	1261.51794	-1449.09521	103.38387	1320.93518	-1393.19043	243.11467	1481.54468	-1623.93213	268.58737	1289.19653	-1716.92041	309.53836	1154.37402	-1742.97656	384.46609	1043.54016	-1754.61255	496.46405	968.17749	-1722.91919	456.18015	944.32422	-1754.43787	507.71552	903.91791	-1760.98914	228.25653	1455.58179	-1257.96521	175.96622	1264.52625	-1188.67163	173.9962	1117.82275	-1178.17603	187.23749	999.54059	-1155.60059	228.94455	869.76862	-1164.93347	176.49966	870.03558	-1145.1814	206.98331	804.67334	-1135.28967	344.9581	958.71686	-1590.96082	367.55945	960.39087	-1334.2157	142.25674	1002.46692	-1488.78369	145.87833	1005.88159	-1374.23413	215.17149	659.54529	-1635.65894	139.49916	473.32053	-1608.63379	6.83076	329.71231	-1607.29456	-85.2736	122.54913	-1580.27185	-124.80142	110.12396	-1528.16528	45.16728	31.0976	-1595.2356	359.68463	664.92987	-1250.53882	423.65234	467.21317	-1291.99841	424.05472	278.78406	-1281.99426	436.82513	86.93024	-1317.22534	410.54306	35.65879	-1375.26135	591.39661	37.97932	-1298.48999	291.00354	1775.49219	-1391.84644	-2845.15625	1034.07007	3360.24487
153	1.52	411.82098	1691.66089	-1445.97986	356.34747	1668.07227	-1314.34985	280.19229	1650.34937	-1507.29712	214.78224	1628.53882	-1379.87451	175.09482	1504.66394	-1445.50732	123.87226	1221.49719	-1444.12402	311.76825	1431.59387	-1449.71948	365.87833	1262.86987	-1446.49048	112.96709	1321.17737	-1390.41089	252.1162	1482.48853	-1621.31641	275.93808	1289.46619	-1713.66699	315.95038	1154.29736	-1739.04028	389.52655	1042.52307	-1750.86182	500.64536	965.86047	-1719.41943	459.95657	942.4201	-1750.72241	510.9267	901.45148	-1757.46265	237.15184	1456.26331	-1255.40308	186.20065	1264.79382	-1185.71118	184.86604	1118.15808	-1175.1853	198.20706	999.71973	-1153.08142	241.15945	870.36145	-1162.02539	187.81358	870.23767	-1142.73193	218.05362	804.84705	-1132.99487	356.18604	959.07898	-1587.50903	378.21152	962.11237	-1331.10168	153.3074	1003.30322	-1486.99707	156.26337	1007.57263	-1371.72852	226.3609	660.20251	-1633.61414	152.16141	474.53256	-1608.3689	16.31452	333.96002	-1606.31775	-80.851	129.01625	-1580.17773	-119.27511	117.90306	-1527.36926	45.42818	31.19674	-1595.45593	371.15286	666.17969	-1248.23816	433.82269	467.62723	-1290.86597	431.01935	278.93256	-1281.4939	439.22482	87.24154	-1317.20984	411.06384	36.15635	-1375.48608	592.52338	37.02386	-1298.1554	300.44641	1776.06458	-1388.5	-2845.71753	1034.17993	3357.38037
154	1.53	420.99573	1692.24536	-1442.96582	365.75446	1668.59802	-1311.29919	289.11789	1651.49438	-1504.10571	223.89566	1629.57556	-1376.64368	183.614	1505.49622	-1442.72803	133.4297	1222.0614	-1441.85376	320.72821	1432.85815	-1447.08826	375.51273	1264.4541	-1443.92261	122.21695	1321.66895	-1387.77588	261.01794	1483.74585	-1618.67175	283.11163	1290.21667	-1710.55933	322.16452	1154.57446	-1735.28894	394.15707	1041.76379	-1747.04199	504.29059	963.65723	-1715.87036	463.16495	940.65668	-1746.99023	513.44965	898.9339	-1753.72839	246.09579	1457.18542	-1252.76208	196.94432	1265.26758	-1182.62915	195.94441	1118.73828	-1172.85547	210.39966	1000.59821	-1150.50415	251.89117	870.86951	-1159.98645	199.01773	871.01727	-1139.92944	229.48032	805.42224	-1130.64441	367.20447	959.81677	-1583.82092	388.8689	964.12427	-1327.87219	164.14192	1004.24249	-1485.17493	166.53085	1009.05139	-1369.30994	237.96936	660.79694	-1631.56116	165.97681	475.45251	-1608.3241	26.90359	338.30304	-1605.03406	-75.1627	135.91266	-1579.88464	-112.34617	126.11971	-1526.23193	45.71238	31.20758	-1595.47974	381.94119	666.56177	-1246.41077	442.40656	467.71127	-1289.59363	435.37793	279.03885	-1280.86401	440.28192	87.26923	-1317.38501	411.4408	36.08225	-1375.40002	593.16241	36.25768	-1297.84314	309.98007	1776.87781	-1385.1217	-2845.24658	1033.88574	3360.44189
